<svg width="16" height="16" viewBox="0 0 16 16" fill="none" xmlns="http://www.w3.org/2000/svg">
    <path fill-rule="evenodd" clip-rule="evenodd" d="M8.65389 1.12688C8.23294 0.957705 7.76156 0.957705 7.34061 1.12688L2.19274 3.18709C1.98844 3.26859 1.81342 3.40831 1.69004 3.58839C1.56666 3.76847 1.50052 3.98073 1.50008 4.19807V6.62987C1.49217 8.49243 2.0925 10.308 3.21225 11.8079C4.33199 13.3079 5.91163 14.4124 7.71741 14.9581C7.89779 15.014 8.09117 15.014 8.27154 14.9581C10.0771 14.4141 11.6574 13.3118 12.7789 11.8141C13.9005 10.3164 14.5039 8.50267 14.5 6.64081V4.19807C14.5017 3.97887 14.4366 3.76422 14.3131 3.58199C14.1896 3.39975 14.0134 3.25835 13.8073 3.17616L8.65389 1.12688ZM5.5 7.5C5.22386 7.5 5 7.72386 5 8C5 8.27614 5.22386 8.5 5.5 8.5H10.5C10.7761 8.5 11 8.27614 11 8C11 7.72386 10.7761 7.5 10.5 7.5H5.5Z" fill="#CCD0DD"/>
</svg>
