<svg width="16" height="16" viewBox="0 0 16 16" fill="none" xmlns="http://www.w3.org/2000/svg">
    <path fill-rule="evenodd" clip-rule="evenodd" d="M8.65389 1.12688C8.23294 0.957705 7.76156 0.957705 7.34061 1.12688L2.19274 3.18709C1.98844 3.26859 1.81342 3.40831 1.69004 3.58839C1.56666 3.76847 1.50052 3.98073 1.50008 4.19807V6.62987C1.49217 8.49243 2.0925 10.308 3.21225 11.8079C4.33199 13.3079 5.91163 14.4124 7.71741 14.9581C7.89779 15.014 8.09117 15.014 8.27154 14.9581C10.0771 14.4141 11.6574 13.3118 12.7789 11.8141C13.9005 10.3164 14.5039 8.50267 14.5 6.64081V4.19807C14.5017 3.97887 14.4366 3.76422 14.3131 3.58199C14.1896 3.39975 14.0134 3.25835 13.8073 3.17616L8.65389 1.12688ZM7.47998 5.55021C7.47998 5.40429 7.53795 5.26434 7.64113 5.16116C7.74432 5.05797 7.88427 5 8.03019 5C8.1019 4.99998 8.1729 5.01429 8.23901 5.04208C8.30512 5.06988 8.36501 5.11059 8.41517 5.16185C8.46533 5.2131 8.50475 5.27385 8.53111 5.34054C8.55747 5.40723 8.57025 5.47851 8.56869 5.55021V8.80464C8.57025 8.87633 8.55747 8.94762 8.53111 9.01431C8.50475 9.081 8.46533 9.14176 8.41517 9.19301C8.36501 9.24426 8.30512 9.28497 8.23901 9.31276C8.1729 9.34055 8.1019 9.35486 8.03019 9.35485C7.88427 9.35485 7.74432 9.29688 7.64113 9.1937C7.53795 9.09051 7.47998 8.95056 7.47998 8.80464V5.55021ZM8.56869 11.0055C8.56869 11.1483 8.51196 11.2853 8.41097 11.3862C8.30998 11.4872 8.17301 11.544 8.03019 11.544C7.88627 11.544 7.74807 11.4876 7.64521 11.387C7.54236 11.2863 7.48304 11.1494 7.47998 11.0055C7.48304 10.8616 7.54236 10.7246 7.64521 10.624C7.74807 10.5233 7.88627 10.4669 8.03019 10.467C8.17301 10.467 8.30998 10.5237 8.41097 10.6247C8.51196 10.7257 8.56869 10.8627 8.56869 11.0055Z" fill="#C92632"/>
</svg>
