<?xml version="1.0" encoding="utf-8"?>
<!-- Generator: Adobe Illustrator 27.0.1, SVG Export Plug-In . SVG Version: 6.00 Build 0)  -->
<svg version="1.1" id="Layer_1" xmlns="http://www.w3.org/2000/svg" xmlns:xlink="http://www.w3.org/1999/xlink" x="0px" y="0px"
	 viewBox="0 0 12 12" style="enable-background:new 0 0 12 12;" xml:space="preserve">
<style type="text/css">
	.st0{fill-rule:evenodd;clip-rule:evenodd;fill:#B91C1C;}
</style>
<path class="st0" d="M10.7,2.7c-0.1-0.1-0.2-0.2-0.4-0.3L6.5,0.8c-0.3-0.1-0.7-0.1-1,0L1.6,2.4C1.5,2.5,1.4,2.6,1.3,2.7
	S1.1,3,1.1,3.1V5c0,1.4,0.4,2.8,1.3,3.9s2,2,3.4,2.4c0.1,0,0.3,0,0.4,0c1.4-0.4,2.5-1.2,3.4-2.4s1.3-2.5,1.3-3.9V3.1
	C10.9,3,10.8,2.8,10.7,2.7z M6.3,8.5C6.2,8.6,6.1,8.7,6,8.7c-0.1,0-0.2,0-0.3-0.1C5.7,8.5,5.6,8.4,5.6,8.3c0-0.1,0-0.2,0.1-0.3
	C5.8,7.9,5.9,7.9,6,7.9c0.1,0,0.2,0,0.3,0.1s0.1,0.2,0.1,0.3S6.4,8.5,6.3,8.5z M6.4,6.6c0,0.1,0,0.1,0,0.2c0,0,0,0.1-0.1,0.1
	c0,0-0.1,0.1-0.1,0.1S6.1,7,6,7C5.9,7,5.8,7,5.7,6.9S5.6,6.7,5.6,6.6V4.2c0-0.1,0-0.2,0.1-0.3S5.9,3.8,6,3.8c0.1,0,0.1,0,0.2,0
	c0,0,0.1,0.1,0.1,0.1c0,0,0.1,0.1,0.1,0.1c0,0.1,0,0.1,0,0.2V6.6z"/>
</svg>
