<?xml version="1.0" encoding="utf-8"?>
<!-- Generator: Adobe Illustrator 27.0.1, SVG Export Plug-In . SVG Version: 6.00 Build 0)  -->
<svg version="1.1" id="Layer_1" xmlns="http://www.w3.org/2000/svg" xmlns:xlink="http://www.w3.org/1999/xlink" x="0px" y="0px"
	 viewBox="0 0 12 12" style="enable-background:new 0 0 12 12;" xml:space="preserve">
<style type="text/css">
	.st0{fill-rule:evenodd;clip-rule:evenodd;fill:#FF9458;}
</style>
<path class="st0" d="M10.7,2.7c-0.1-0.1-0.2-0.2-0.4-0.3L6.5,0.8c-0.3-0.1-0.7-0.1-1,0L1.6,2.4C1.5,2.5,1.4,2.6,1.3,2.7
	S1.1,3,1.1,3.1V5c0,1.4,0.4,2.8,1.3,3.9s2,2,3.4,2.4c0.1,0,0.3,0,0.4,0c1.4-0.4,2.5-1.2,3.4-2.4s1.3-2.5,1.3-3.9V3.1
	C10.9,3,10.8,2.8,10.7,2.7z M8.5,8.3H7.7V5.9c0-0.2,0-0.6,0-0.9c0-0.4,0-0.6,0-0.7h0l-1.4,4H5.6l-1.4-4h0c0,0.6,0.1,1.2,0.1,1.7v2.3
	H3.5V3.5h1.1L6,7.3h0l1.4-3.8h1.1V8.3z"/>
</svg>
