<svg viewBox="0 0 16 16" fill="none" xmlns="http://www.w3.org/2000/svg">
<g opacity="0.5">
<path fill-rule="evenodd" clip-rule="evenodd" d="M4.4622 13.1574C5.39883 13.9758 6.50735 14.5924 7.71741 14.9581C7.89779 15.014 8.09117 15.014 8.27154 14.9581C10.0771 14.4141 11.6574 13.3118 12.7789 11.8141C13.9005 10.3164 14.5039 8.50267 14.5 6.64081V4.19807C14.5017 3.97887 14.4366 3.76422 14.3131 3.58199C14.2763 3.52767 14.2348 3.47698 14.1892 3.43041L4.4622 13.1574ZM12.7447 2.75361L8.65389 1.12688C8.23294 0.957705 7.76156 0.957705 7.34061 1.12688L2.19274 3.18709C1.98844 3.26859 1.81342 3.40831 1.69004 3.58839C1.56666 3.76847 1.50052 3.98073 1.50008 4.19807V6.62987C1.49217 8.49243 2.0925 10.308 3.21225 11.8079C3.28028 11.8991 3.35001 11.9887 3.42139 12.0769L7.47998 8.01833V5.55021C7.47998 5.40429 7.53795 5.26434 7.64113 5.16116C7.74432 5.05797 7.88427 5 8.03019 5C8.1019 4.99998 8.1729 5.01429 8.23901 5.04208C8.30512 5.06988 8.36501 5.11059 8.41517 5.16185C8.46533 5.2131 8.50475 5.27385 8.53111 5.34054C8.55747 5.40723 8.57025 5.47851 8.56869 5.55021V6.92962L12.7447 2.75361ZM8.41097 11.3862C8.51196 11.2853 8.56869 11.1483 8.56869 11.0055C8.56869 10.8627 8.51196 10.7257 8.41097 10.6247C8.30998 10.5237 8.17301 10.467 8.03019 10.467C7.88627 10.4669 7.74807 10.5233 7.64521 10.624C7.54236 10.7246 7.48304 10.8616 7.47998 11.0055C7.48304 11.1494 7.54236 11.2863 7.64521 11.387C7.74807 11.4876 7.88627 11.544 8.03019 11.544C8.17301 11.544 8.30998 11.4872 8.41097 11.3862Z" fill="#C92632"/>
</g>
</svg>
