<svg viewBox="0 0 16 16" fill="none" xmlns="http://www.w3.org/2000/svg">
    <g opacity="0.5">
    <path fill-rule="evenodd" clip-rule="evenodd" d="M4.4622 13.1574C5.39883 13.9758 6.50735 14.5924 7.71741 14.9581C7.89779 15.014 8.09117 15.014 8.27154 14.9581C10.0771 14.4141 11.6574 13.3118 12.7789 11.8141C13.9005 10.3164 14.5039 8.50267 14.5 6.64081V4.19807C14.5017 3.97887 14.4366 3.76422 14.3131 3.58199C14.2763 3.52767 14.2348 3.47698 14.1892 3.43041L10.1196 7.5H10.5C10.7761 7.5 11 7.72386 11 8C11 8.27614 10.7761 8.5 10.5 8.5H9.11963L4.4622 13.1574ZM7.99831 7.5H5.5C5.22386 7.5 5 7.72386 5 8C5 8.27614 5.22386 8.5 5.5 8.5H6.99831L3.42139 12.0769C3.35001 11.9887 3.28028 11.8991 3.21225 11.8079C2.0925 10.308 1.49217 8.49243 1.50008 6.62987V4.19807C1.50052 3.98073 1.56666 3.76847 1.69004 3.58839C1.81342 3.40831 1.98844 3.26859 2.19274 3.18709L7.34061 1.12688C7.76156 0.957705 8.23294 0.957705 8.65389 1.12688L12.7447 2.75361L7.99831 7.5Z" fill="#CCD0DD"/>
    </g>
</svg>
