<svg viewBox="0 0 12 12" fill="none" xmlns="http://www.w3.org/2000/svg">
<path fill-rule="evenodd" clip-rule="evenodd" d="M6.49042 0.845163C6.1747 0.718279 5.82117 0.718279 5.50545 0.845163L1.64455 2.39032C1.49133 2.45144 1.36007 2.55623 1.26753 2.69129C1.175 2.82635 1.12539 2.98555 1.12506 3.14855V4.97241C1.11912 6.36932 1.56938 7.73101 2.40918 8.85595C3.24899 9.98089 4.43373 10.8093 5.78806 11.2186C5.92334 11.2605 6.06838 11.2605 6.20366 11.2186C7.55783 10.8106 8.74303 9.98388 9.58421 8.86059C10.4254 7.7373 10.8779 6.377 10.875 4.9806V3.14855C10.8763 2.98416 10.8275 2.82317 10.7348 2.68649C10.6422 2.54981 10.51 2.44377 10.3555 2.38212L6.49042 0.845163ZM3.9 5C3.67909 5 3.5 5.17909 3.5 5.4C3.5 5.62091 3.67909 5.8 3.9 5.8H8.1C8.32091 5.8 8.5 5.62091 8.5 5.4C8.5 5.17909 8.32091 5 8.1 5H3.9Z" fill="#999DB4"/>
</svg>
